<svg width="233" height="45" viewBox="0 0 233 45" fill="none" xmlns="http://www.w3.org/2000/svg">
<mask id="mask0_5078_77" style="mask-type:luminance" maskUnits="userSpaceOnUse" x="42" y="1" width="11" height="43">
<path d="M42.0994 1.62732H52.8467V43.9044H42.0994V1.62732Z" fill="white"/>
</mask>
<g mask="url(#mask0_5078_77)">
<path d="M42.3037 43.9076V1.62726H52.3905V43.9076H42.3037Z" fill="#39BF00"/>
</g>
<mask id="mask1_5078_77" style="mask-type:luminance" maskUnits="userSpaceOnUse" x="28" y="12" width="11" height="32">
<path d="M28.006 12.1417H38.7825V43.9045H28.006V12.1417Z" fill="white"/>
</mask>
<g mask="url(#mask1_5078_77)">
<path d="M28.2161 43.9077V12.2711H38.3029V43.9077H28.2161Z" fill="#001C53"/>
</g>
<mask id="mask2_5078_77" style="mask-type:luminance" maskUnits="userSpaceOnUse" x="13" y="22" width="12" height="22">
<path d="M13.9146 22.918H24.6911V43.9044H13.9146V22.918Z" fill="white"/>
</mask>
<g mask="url(#mask2_5078_77)">
<path d="M14.132 43.9077V23.2873H24.222V43.9077H14.132Z" fill="#39BF00"/>
</g>
<mask id="mask3_5078_77" style="mask-type:luminance" maskUnits="userSpaceOnUse" x="0" y="33" width="11" height="11">
<path d="M0 33.6947H10.5984V43.9045H0V33.6947Z" fill="white"/>
</mask>
<g mask="url(#mask3_5078_77)">
<path d="M0.0456543 43.9078V33.9343H10.1357V43.9078H0.0456543Z" fill="#001C53"/>
</g>
<path d="M60.2858 25.763V23.6128L73.329 5.31089H61.1665V0.505493H81.0487V2.96648L68.3682 20.5949H81.1523V25.763H60.2858Z" fill="#001C53"/>
<path d="M95.2106 26.4754C92.4453 26.4754 90.0491 25.9216 88.022 24.8174C85.9917 23.7132 84.4147 22.1622 83.2943 20.1675C82.1707 18.1728 81.6105 15.8284 81.6105 13.1342C81.6105 10.5794 82.161 8.31266 83.2684 6.33416C84.3726 4.3589 85.9237 2.80783 87.9184 1.6842C89.9131 0.563801 92.2218 0.000366211 94.848 0.000366211C97.3672 0.000366211 99.5821 0.47961 101.493 1.4381C103.4 2.39011 104.899 3.82784 105.987 5.75129C107.082 7.67799 107.632 10.0872 107.632 12.9788C107.632 13.3253 107.622 13.6912 107.606 14.0798C107.587 14.4684 107.561 14.8537 107.529 15.2326H87.0764C87.3161 17.1754 88.1677 18.7168 89.6281 19.8566C91.095 20.9964 92.9893 21.5663 95.3143 21.5663C96.6095 21.5663 97.9501 21.3397 99.3425 20.8799C100.741 20.4233 101.833 19.7498 102.619 18.8593L106.052 22.1881C104.757 23.6485 103.112 24.7268 101.117 25.4262C99.1223 26.1256 97.1535 26.4754 95.2106 26.4754ZM87.1801 10.7898H102.464C102.299 8.77895 101.551 7.2635 100.223 6.24349C98.8924 5.217 97.1535 4.70214 95.0034 4.70214C93.0605 4.70214 91.3702 5.217 89.939 6.24349C88.5045 7.2635 87.5848 8.77895 87.1801 10.7898Z" fill="#001C53"/>
<path d="M109.314 25.7627V0.505271H114.223L114.586 3.88588C115.499 2.27977 116.622 1.23061 117.953 0.738417C119.281 0.24622 120.628 0.00012207 121.994 0.00012207C123.218 0.00012207 124.384 0.19441 125.492 0.582986C126.605 0.971563 127.519 1.48966 128.238 2.13729L125.828 6.7484C125.181 6.24001 124.523 5.85467 123.86 5.59562C123.192 5.33657 122.37 5.20704 121.386 5.20704C119.579 5.20704 117.995 5.78343 116.632 6.92973C115.266 8.06956 114.586 9.79872 114.586 12.1107V25.7627H109.314Z" fill="#001C53"/>
<path d="M139.63 26.3199C137.014 26.3199 134.724 25.75 132.765 24.6102C130.803 23.4704 129.294 21.9031 128.232 19.9084C127.176 17.9137 126.652 15.673 126.652 13.1861C126.652 10.7348 127.186 8.5102 128.258 6.5155C129.336 4.52081 130.855 2.94708 132.817 1.78783C134.776 0.631812 137.046 0.0521851 139.63 0.0521851C142.221 0.0521851 144.494 0.631812 146.456 1.78783C148.415 2.94708 149.947 4.52081 151.054 6.5155C152.168 8.5102 152.725 10.7348 152.725 13.1861C152.725 15.673 152.184 17.9137 151.106 19.9084C150.034 21.9031 148.519 23.4704 146.56 24.6102C144.597 25.75 142.289 26.3199 139.63 26.3199ZM139.63 21.4239C141.269 21.4239 142.668 21.0483 143.827 20.297C144.983 19.5458 145.867 18.5484 146.482 17.305C147.094 16.0615 147.402 14.6886 147.402 13.1861C147.402 11.6836 147.078 10.3106 146.43 9.06715C145.783 7.82371 144.879 6.82313 143.723 6.06216C142.564 5.29473 141.201 4.90939 139.63 4.90939C138.066 4.90939 136.706 5.29473 135.55 6.06216C134.391 6.82313 133.494 7.82371 132.856 9.06715C132.225 10.3106 131.91 11.6836 131.91 13.1861C131.91 14.6886 132.225 16.0615 132.856 17.305C133.494 18.5484 134.391 19.5458 135.55 20.297C136.706 21.0483 138.066 21.4239 139.63 21.4239Z" fill="#39BF00"/>
<path d="M166.493 26.4754C164.074 26.4754 161.859 25.9832 159.848 24.9988C157.834 24.0079 156.225 22.5216 155.017 20.5431C153.806 18.5678 153.203 16.1328 153.203 13.2379C153.203 10.3106 153.799 7.86903 154.991 5.90672C156.183 3.94765 157.792 2.4743 159.822 1.48991C161.849 0.499039 164.074 0.000366211 166.493 0.000366211C168.228 0.000366211 169.838 0.291799 171.324 0.868186C172.807 1.44781 174.232 2.40306 175.598 3.7307L172.27 7.15017C171.447 6.43454 170.537 5.90025 169.537 5.54405C168.533 5.1911 167.535 5.013 166.545 5.013C165.042 5.013 163.676 5.35624 162.452 6.03625C161.224 6.70978 160.253 7.66503 159.537 8.89876C158.818 10.126 158.462 11.5735 158.462 13.2379C158.462 15.0091 158.828 16.4987 159.563 17.7065C160.295 18.9176 161.276 19.8307 162.503 20.4524C163.727 21.0677 165.058 21.3721 166.493 21.3721C167.581 21.3721 168.643 21.1972 169.679 20.841C170.722 20.4783 171.654 19.8696 172.477 19.0147L176.052 22.5378C174.617 23.9367 173.125 24.9437 171.57 25.5557C170.022 26.1677 168.332 26.4754 166.493 26.4754Z" fill="#001C53"/>
<path d="M188.573 26.4236C186.119 26.4236 183.913 25.9119 181.954 24.8952C179.992 23.8687 178.451 22.3694 177.33 20.4006C176.207 18.4254 175.646 16.0032 175.646 13.1342C175.646 10.3041 176.233 7.92085 177.408 5.98444C178.58 4.04156 180.157 2.56173 182.136 1.54172C184.111 0.51523 186.293 0.000366211 188.677 0.000366211C190.49 0.000366211 192.177 0.401895 193.741 1.20495C195.312 2.00153 196.487 3.11545 197.264 4.54671L197.42 0.505515H202.536V25.763H197.523L197.264 21.67C196.72 22.7677 195.959 23.6647 194.985 24.3641C194.016 25.0571 192.964 25.5687 191.824 25.9055C190.684 26.2487 189.6 26.4236 188.573 26.4236ZM189.091 21.5145C190.93 21.5145 192.452 21.1098 193.663 20.297C194.871 19.4778 195.775 18.4286 196.371 17.1495C196.966 15.8737 197.264 14.5331 197.264 13.1342C197.264 11.7354 196.966 10.4077 196.371 9.14486C195.775 7.88523 194.871 6.84902 193.663 6.03625C192.452 5.217 190.93 4.80576 189.091 4.80576C187.589 4.80576 186.216 5.149 184.972 5.82901C183.729 6.51226 182.738 7.47398 182.006 8.71743C181.271 9.96087 180.905 11.4342 180.905 13.1342C180.905 14.8375 181.271 16.3206 182.006 17.5899C182.738 18.8528 183.729 19.8242 184.972 20.5042C186.216 21.1778 187.589 21.5145 189.091 21.5145Z" fill="#001C53"/>
<path d="M206.11 37.5239V0.505524H211.071L211.382 4.65034C212.367 3.11546 213.665 1.96592 215.281 1.20496C216.903 0.437523 218.571 0.0521851 220.281 0.0521851C222.8 0.0521851 225.015 0.622097 226.925 1.76192C228.832 2.90174 230.322 4.46253 231.394 6.43779C232.462 8.41629 233 10.6668 233 13.1861C233 15.7442 232.482 18.0174 231.446 20.0121C230.409 22.0067 228.946 23.574 227.055 24.7138C225.164 25.8537 222.903 26.4236 220.281 26.4236C219.251 26.4236 218.169 26.2843 217.029 26.0091C215.89 25.7436 214.821 25.3032 213.83 24.6879C212.846 24.0759 212.03 23.2437 211.382 22.1881V37.5239H206.11ZM219.762 21.3203C221.333 21.3203 222.716 20.9705 223.907 20.2711C225.099 19.5717 226.035 18.6099 226.718 17.3827C227.398 16.1587 227.741 14.7598 227.741 13.1861C227.741 10.8028 227.016 8.86963 225.565 7.38332C224.115 5.90026 222.178 5.15549 219.762 5.15549C218.163 5.15549 216.764 5.51492 215.566 6.23055C214.374 6.94941 213.455 7.91114 212.807 9.11897C212.159 10.33 211.835 11.6836 211.835 13.1861C211.835 14.6886 212.176 16.0551 212.859 17.2791C213.539 18.5063 214.478 19.4875 215.669 20.2193C216.868 20.9544 218.234 21.3203 219.762 21.3203Z" fill="#001C53"/>
<path d="M61.3186 44.7011V35.4141H66.6421V36.5021H62.4973V39.7144H66.2924V40.7894H62.4973V44.7011H61.3186Z" fill="#001C53"/>
<path d="M78.684 44.8565C77.5604 44.8565 76.6796 44.5068 76.0417 43.8074C75.4103 43.1079 75.0962 42.1462 75.0962 40.919V35.4141H76.249V40.8412C76.249 41.7933 76.4562 42.5089 76.8707 42.9914C77.2916 43.4771 77.8972 43.7167 78.684 43.7167C80.2966 43.7167 81.1062 42.7582 81.1062 40.8412V35.4141H82.2719V40.919C82.2719 42.1462 81.9513 43.1079 81.3134 43.8074C80.682 44.5068 79.8044 44.8565 78.684 44.8565Z" fill="#001C53"/>
<path d="M91.3472 44.701V35.414H92.4481L97.5903 42.6804V35.414H98.7301V44.701H97.6421L92.5129 37.4346V44.701H91.3472Z" fill="#001C53"/>
<path d="M107.907 44.7012V35.4142H111.119C112.078 35.4142 112.91 35.6149 113.619 36.01C114.335 36.3986 114.892 36.9426 115.29 37.642C115.685 38.335 115.886 39.1413 115.886 40.0641C115.886 40.9708 115.685 41.7739 115.29 42.4733C114.892 43.1728 114.335 43.7232 113.619 44.1183C112.91 44.5069 112.078 44.7012 111.119 44.7012H107.907ZM109.086 43.5872H111.119C111.825 43.5872 112.447 43.4415 112.984 43.1469C113.519 42.8457 113.936 42.4312 114.241 41.9034C114.542 41.3691 114.694 40.7571 114.694 40.0641C114.694 39.3582 114.539 38.7397 114.228 38.2119C113.923 37.6874 113.502 37.2761 112.958 36.9814C112.421 36.6803 111.793 36.5281 111.067 36.5281H109.086V43.5872Z" fill="#001C53"/>
<path d="M124.479 44.7011V35.4141H125.657V44.7011H124.479Z" fill="#001C53"/>
<path d="M134.833 44.7011V35.4141H135.934L141.076 42.6805V35.4141H142.216V44.7011H141.128L135.999 37.4347V44.7011H134.833Z" fill="#001C53"/>
<path d="M155.538 44.8693C154.855 44.8693 154.223 44.7528 153.647 44.5196C153.077 44.28 152.578 43.9465 152.157 43.5223C151.733 43.0916 151.4 42.5832 151.16 41.9939C150.927 41.3981 150.81 40.7569 150.81 40.064C150.81 39.3645 150.927 38.7266 151.16 38.147C151.393 37.5609 151.72 37.0525 152.144 36.6186C152.565 36.1782 153.064 35.8414 153.634 35.6083C154.204 35.3687 154.829 35.2456 155.512 35.2456C156.218 35.2456 156.872 35.3751 157.468 35.6342C158.07 35.8868 158.588 36.243 159.022 36.7092C159.462 37.1691 159.78 37.7001 159.981 38.3024H158.711C158.417 37.7066 157.992 37.2468 157.442 36.9165C156.898 36.5797 156.266 36.4113 155.551 36.4113C154.858 36.4113 154.246 36.5668 153.712 36.8776C153.174 37.1885 152.756 37.6224 152.455 38.1729C152.16 38.7169 152.015 39.3483 152.015 40.064C152.015 40.7828 152.164 41.4175 152.468 41.968C152.769 42.512 153.187 42.9394 153.725 43.2503C154.259 43.5547 154.871 43.7036 155.564 43.7036C156.192 43.7036 156.749 43.5838 157.235 43.3409C157.717 43.0916 158.109 42.7451 158.413 42.3047C158.724 41.8644 158.918 41.356 158.996 40.7763H155.214V39.6624H160.253C160.278 40.6824 160.091 41.5859 159.696 42.3695C159.297 43.1467 158.744 43.7619 158.038 44.2088C157.329 44.6491 156.496 44.8693 155.538 44.8693Z" fill="#001C53"/>
</svg>
